<?xml version="1.0" encoding="UTF-8" standalone="no"?>
<!-- Created with Inkscape (http://www.inkscape.org/) -->

<svg
   xmlns:dc="http://purl.org/dc/elements/1.1/"
   xmlns:cc="http://creativecommons.org/ns#"
   xmlns:rdf="http://www.w3.org/1999/02/22-rdf-syntax-ns#"
   xmlns:svg="http://www.w3.org/2000/svg"
   xmlns="http://www.w3.org/2000/svg"
   xmlns:sodipodi="http://sodipodi.sourceforge.net/DTD/sodipodi-0.dtd"
   xmlns:inkscape="http://www.inkscape.org/namespaces/inkscape"
   width="107.25031mm"
   height="45.418533mm"
   viewBox="0 0 380.02079 160.93181"
   id="svg15377"
   version="1.1"
   inkscape:version="0.91 r13725"
   sodipodi:docname="logo.svg">
  <defs
     id="defs15379">
    <linearGradient
       x1="0"
       y1="0"
       x2="1"
       y2="0"
       gradientUnits="userSpaceOnUse"
       gradientTransform="matrix(-0.04559,-25.32533,25.32533,-0.04559,3084.3008,-1356.4043)"
       spreadMethod="pad"
       id="linearGradient10349">
      <stop
         style="stop-opacity:1;stop-color:#21b4ef"
         offset="0"
         id="stop10351" />
      <stop
         style="stop-opacity:1;stop-color:#21b4ef"
         offset="0.00562"
         id="stop10353" />
      <stop
         style="stop-opacity:1;stop-color:#243d7c"
         offset="1"
         id="stop10355" />
    </linearGradient>
    <linearGradient
       x1="0"
       y1="0"
       x2="1"
       y2="0"
       gradientUnits="userSpaceOnUse"
       gradientTransform="matrix(-0.04558,-25.32021,25.32021,-0.04558,3050.6592,-1356.3472)"
       spreadMethod="pad"
       id="linearGradient10327">
      <stop
         style="stop-opacity:1;stop-color:#21b4ef"
         offset="0"
         id="stop10329" />
      <stop
         style="stop-opacity:1;stop-color:#21b4ef"
         offset="0.00562"
         id="stop10331" />
      <stop
         style="stop-opacity:1;stop-color:#243d7c"
         offset="1"
         id="stop10333" />
    </linearGradient>
    <linearGradient
       x1="0"
       y1="0"
       x2="1"
       y2="0"
       gradientUnits="userSpaceOnUse"
       gradientTransform="matrix(-0.04558,-25.31969,25.31969,-0.04558,3016.4395,-1356.2852)"
       spreadMethod="pad"
       id="linearGradient10305">
      <stop
         style="stop-opacity:1;stop-color:#21b4ef"
         offset="0"
         id="stop10307" />
      <stop
         style="stop-opacity:1;stop-color:#21b4ef"
         offset="0.00562"
         id="stop10309" />
      <stop
         style="stop-opacity:1;stop-color:#243d7c"
         offset="1"
         id="stop10311" />
    </linearGradient>
    <linearGradient
       x1="0"
       y1="0"
       x2="1"
       y2="0"
       gradientUnits="userSpaceOnUse"
       gradientTransform="matrix(-0.04558,-25.32379,25.32379,-0.04558,2978.3525,-1356.209)"
       spreadMethod="pad"
       id="linearGradient10283">
      <stop
         style="stop-opacity:1;stop-color:#21b4ef"
         offset="0"
         id="stop10285" />
      <stop
         style="stop-opacity:1;stop-color:#21b4ef"
         offset="0.00562"
         id="stop10287" />
      <stop
         style="stop-opacity:1;stop-color:#243d7c"
         offset="1"
         id="stop10289" />
    </linearGradient>
    <linearGradient
       x1="0"
       y1="0"
       x2="1"
       y2="0"
       gradientUnits="userSpaceOnUse"
       gradientTransform="matrix(0.07628,-25.42546,25.42546,0.07628,2940.1064,-1356.022)"
       spreadMethod="pad"
       id="linearGradient10261">
      <stop
         style="stop-opacity:1;stop-color:#21b4ef"
         offset="0"
         id="stop10263" />
      <stop
         style="stop-opacity:1;stop-color:#21b4ef"
         offset="0.00562"
         id="stop10265" />
      <stop
         style="stop-opacity:1;stop-color:#243d7c"
         offset="1"
         id="stop10267" />
    </linearGradient>
    <linearGradient
       x1="0"
       y1="0"
       x2="1"
       y2="0"
       gradientUnits="userSpaceOnUse"
       gradientTransform="matrix(-0.04558,-25.32175,25.32175,-0.04558,2916.7568,-1356.0996)"
       spreadMethod="pad"
       id="linearGradient10239">
      <stop
         style="stop-opacity:1;stop-color:#21b4ef"
         offset="0"
         id="stop10241" />
      <stop
         style="stop-opacity:1;stop-color:#21b4ef"
         offset="0.00562"
         id="stop10243" />
      <stop
         style="stop-opacity:1;stop-color:#243d7c"
         offset="1"
         id="stop10245" />
    </linearGradient>
    <linearGradient
       x1="0"
       y1="0"
       x2="1"
       y2="0"
       gradientUnits="userSpaceOnUse"
       gradientTransform="matrix(-0.0461,-25.60927,25.60927,-0.0461,2892.5244,-1355.646)"
       spreadMethod="pad"
       id="linearGradient10217">
      <stop
         style="stop-opacity:1;stop-color:#21b4ef"
         offset="0"
         id="stop10219" />
      <stop
         style="stop-opacity:1;stop-color:#21b4ef"
         offset="0.00562"
         id="stop10221" />
      <stop
         style="stop-opacity:1;stop-color:#243d7c"
         offset="1"
         id="stop10223" />
    </linearGradient>
    <linearGradient
       x1="0"
       y1="0"
       x2="1"
       y2="0"
       gradientUnits="userSpaceOnUse"
       gradientTransform="matrix(0.07785,-25.95222,25.95222,0.07785,2857.6162,-1355.3755)"
       spreadMethod="pad"
       id="linearGradient10195">
      <stop
         style="stop-opacity:1;stop-color:#21b4ef"
         offset="0"
         id="stop10197" />
      <stop
         style="stop-opacity:1;stop-color:#21b4ef"
         offset="0.00562"
         id="stop10199" />
      <stop
         style="stop-opacity:1;stop-color:#243d7c"
         offset="1"
         id="stop10201" />
    </linearGradient>
    <linearGradient
       x1="0"
       y1="0"
       x2="1"
       y2="0"
       gradientUnits="userSpaceOnUse"
       gradientTransform="matrix(-0.04558,-25.31969,25.31969,-0.04558,2822.5068,-1355.9302)"
       spreadMethod="pad"
       id="linearGradient10173">
      <stop
         style="stop-opacity:1;stop-color:#21b4ef"
         offset="0"
         id="stop10175" />
      <stop
         style="stop-opacity:1;stop-color:#21b4ef"
         offset="0.00562"
         id="stop10177" />
      <stop
         style="stop-opacity:1;stop-color:#243d7c"
         offset="1"
         id="stop10179" />
    </linearGradient>
    <radialGradient
       fx="0"
       fy="0"
       cx="0"
       cy="0"
       r="1"
       gradientUnits="userSpaceOnUse"
       gradientTransform="matrix(46.08904,-0.08296,0.08296,46.08904,2932.4072,-1453.6074)"
       spreadMethod="pad"
       id="radialGradient10151">
      <stop
         style="stop-opacity:1;stop-color:#21b4ef"
         offset="0"
         id="stop10153" />
      <stop
         style="stop-opacity:1;stop-color:#21b4ef"
         offset="0.00562"
         id="stop10155" />
      <stop
         style="stop-opacity:1;stop-color:#243d7c"
         offset="1"
         id="stop10157" />
    </radialGradient>
    <mask
       maskUnits="userSpaceOnUse"
       x="0"
       y="0"
       width="1"
       height="1"
       id="mask10071">
      <g
         id="g10073">
        <g
           clip-path="url(#clipPath10033)"
           id="g10075">
          <g
             transform="matrix(1,0,0,-1,-7893,8968.749)"
             id="g10077">
            <path
               d="m 10716.012,7488.1177 234.883,0 0,88.2466 -234.883,0 0,-88.2466 z"
               style="fill:#000000;fill-opacity:1;fill-rule:nonzero;stroke:none"
               id="path10079"
               inkscape:connector-curvature="0" />
            <g
               transform="matrix(1,0,0,-1,7893,8968.749)"
               id="g10081">
              <g
                 id="g10083" />
              <g
                 id="g10085">
                <g
                   clip-path="url(#clipPath10037)"
                   id="g10087">
                  <g
                     transform="matrix(1,0,0,-1,-7893,8968.749)"
                     id="g10089">
                    <g
                       id="g10091">
                      <g
                         id="g10093">
                        <g
                           id="g10095">
                          <path
                             d="m 10716.012,7492.3433 c 0,0 0.02,9.353 0.02,9.353 0,0 33.805,-0.053 33.805,-0.053 0,0 0.106,60.0206 0.113,61.2305 0,0 23.699,-0.042 28.312,-0.05 -0.669,-2.1899 -1.126,-4.4839 -1.126,-6.9677 -0.02,-9.5074 4.779,-20.8941 13.732,-32.2623 0,-1.1982 -0.05,-22.0273 -0.05,-22.0273 0,0 22.139,-0.044 23.255,-0.044 4.163,-3.0801 13.423,-8.7202 13.423,-8.7202 0,0 -111.486,-0.459 -111.486,-0.459 z"
                             style="fill:url(#linearGradient10045);fill-rule:evenodd;stroke:none"
                             id="path10097"
                             inkscape:connector-curvature="0" />
                        </g>
                      </g>
                    </g>
                  </g>
                  <g
                     transform="matrix(1,0,0,-1,-7893,8968.749)"
                     id="g10099">
                    <g
                       id="g10101">
                      <g
                         id="g10103">
                        <g
                           id="g10105">
                          <path
                             d="m 10855.548,7557.2129 c 5.241,3.3935 11.251,5.4531 18.318,5.4424 0,0 77.022,-0.146 77.029,-0.146 0,-1.0142 -0.01,-7.6792 -0.01,-8.6978 0,0 -51.761,0.088 -51.761,0.088 -6.01,0.011 -10.389,-2.6255 -12.655,-7.6304 -0.957,-2.1049 -1.479,-5.1084 -1.797,-8.6074 -10.167,7.5566 -19.916,14.1006 -29.12,19.5508 z m 18.192,-64.4951 c 0,0 -0.931,0.05 -1.796,0.091 0.593,1.8423 0.998,3.7998 1.009,5.9521 0,2.7041 -0.452,5.6026 -1.375,8.5938 -3.836,12.5371 -14.874,24.522 -29.529,32.5132 0.687,2.1196 1.581,4.1367 2.659,6.0434 10.62,-3.6172 23.888,-10.5908 39.599,-20.8681 -0.01,-1.4629 -0.01,-4.7061 -0.01,-4.7061 -0.02,-6.2485 0.738,-10.5703 2.308,-13.2129 2.241,-3.81 6.424,-5.7441 12.415,-5.7578 0,0 51.761,-0.1 51.761,-0.1 0,-1.167 -0.02,-7.6738 -0.02,-8.6865 0,0 -0.03,0 -0.03,0 0,0 -76.999,0.1426 -76.999,0.1426 z"
                             style="fill:url(#linearGradient10055);fill-rule:evenodd;stroke:none"
                             id="path10107"
                             inkscape:connector-curvature="0" />
                        </g>
                      </g>
                    </g>
                  </g>
                  <g
                     transform="matrix(1,0,0,-1,-7893,8968.749)"
                     id="g10109">
                    <g
                       id="g10111">
                      <g
                         id="g10113">
                        <g
                           id="g10115">
                          <path
                             d="m 10834.698,7495.3223 c -16.553,8.6035 -33.663,24.812 -43.565,41.2763 -3.312,5.5049 -6.089,12.4043 -6.075,18.1407 0,3.2524 0.902,6.1435 3.128,8.1796 14.642,13.4454 44.051,0.7232 69.482,-15.0244 -16.607,7.5479 -33.309,11.2041 -41.933,1.1275 -3.507,-4.0943 -5.763,-11.8501 3.395,-25.5367 10.523,-15.7343 20.362,-23.5781 27.708,-22.0957 3.451,0.6973 5.881,3.4717 6.685,7.587 0.188,0.9931 0.289,2.0449 0.289,3.1455 0,3.9721 -1.358,8.5986 -3.906,13.207 5.459,-5.1328 10.311,-11.2363 13.071,-17.625 1.212,-2.7979 2.291,-6.1543 2.285,-9.1836 0,-2.3008 -0.635,-4.4189 -2.301,-5.9736 -4.764,-4.4292 -16.646,-3.2652 -28.263,2.7754 z"
                             style="fill:url(#linearGradient10065);stroke:none"
                             id="path10117"
                             inkscape:connector-curvature="0" />
                        </g>
                      </g>
                    </g>
                  </g>
                </g>
              </g>
            </g>
          </g>
        </g>
      </g>
    </mask>
    <clipPath
       clipPathUnits="userSpaceOnUse"
       id="clipPath10033">
      <path
         d="m 2823.0117,1478.8789 234.8828,0 0,-78.7104 -234.8828,0 0,78.7104 z"
         id="path10035"
         inkscape:connector-curvature="0" />
    </clipPath>
    <clipPath
       clipPathUnits="userSpaceOnUse"
       id="clipPath10037">
      <path
         d="m 2823.0117,1480.6313 234.8828,0 0,-88.2465 -234.8828,0 0,88.2465 z"
         id="path10039"
         inkscape:connector-curvature="0" />
    </clipPath>
    <linearGradient
       x1="0"
       y1="0"
       x2="1"
       y2="0"
       gradientUnits="userSpaceOnUse"
       gradientTransform="matrix(4.75153,31.22594,-31.22594,4.75153,10768.65,7476.7939)"
       spreadMethod="pad"
       id="linearGradient10045">
      <stop
         style="stop-opacity:1;stop-color:#ffffff"
         offset="0"
         id="stop10047" />
      <stop
         style="stop-opacity:1;stop-color:#231f20"
         offset="1"
         id="stop10049" />
    </linearGradient>
    <linearGradient
       x1="0"
       y1="0"
       x2="1"
       y2="0"
       gradientUnits="userSpaceOnUse"
       gradientTransform="matrix(16.16306,40.40765,-40.40765,16.16306,10877.164,7468.2158)"
       spreadMethod="pad"
       id="linearGradient10055">
      <stop
         style="stop-opacity:1;stop-color:#ffffff"
         offset="0"
         id="stop10057" />
      <stop
         style="stop-opacity:1;stop-color:#231f20"
         offset="1"
         id="stop10059" />
    </linearGradient>
    <linearGradient
       x1="0"
       y1="0"
       x2="1"
       y2="0"
       gradientUnits="userSpaceOnUse"
       gradientTransform="matrix(5.39792,41.84297,-41.84297,5.39792,10818.328,7473.8179)"
       spreadMethod="pad"
       id="linearGradient10065">
      <stop
         style="stop-opacity:1;stop-color:#ffffff"
         offset="0"
         id="stop10067" />
      <stop
         style="stop-opacity:1;stop-color:#231f20"
         offset="1"
         id="stop10069" />
    </linearGradient>
    <clipPath
       clipPathUnits="userSpaceOnUse"
       id="clipPath10123">
      <path
         d="m 2823.0117,1478.8789 234.8828,0 0,-78.7104 -234.8828,0 0,78.7104 z"
         id="path10125"
         inkscape:connector-curvature="0" />
    </clipPath>
    <linearGradient
       x1="0"
       y1="0"
       x2="1"
       y2="0"
       gradientUnits="userSpaceOnUse"
       gradientTransform="matrix(-0.24387,81.28696,-81.28696,-0.24387,3003.3789,-1470.457)"
       spreadMethod="pad"
       id="linearGradient10021">
      <stop
         style="stop-opacity:1;stop-color:#7b7979"
         offset="0"
         id="stop10023" />
      <stop
         style="stop-opacity:1;stop-color:#e9e9e9"
         offset="1"
         id="stop10025" />
    </linearGradient>
    <clipPath
       clipPathUnits="userSpaceOnUse"
       id="clipPath9993">
      <path
         d="m 2899.8789,-1444.5156 c -12.5586,15.6777 -16.4453,30.8252 -11.8379,40.6035 0,0 -31.0625,0.065 -31.0625,0.065 -1.3681,10e-4 -2.0537,-0.4677 -2.0566,-1.4014 0,0 -0.1074,-59.8359 -0.1074,-59.8359 0,0 -31.7549,0.058 -31.7549,0.058 -1.3623,10e-4 -2.0479,-0.4258 -2.0498,-1.2939 0,0 -0.018,-10.5747 -0.018,-10.5747 0,-0.9312 0.6855,-1.3999 2.0478,-1.4029 0,0 118.7139,0.3145 118.7139,0.3145 0,0 -2.5723,1.4058 -2.5723,1.4058 -6.4277,3.6254 -12.2656,7.4487 -17.5156,11.372 0,0 -21.8222,0.04 -21.8222,0.04 0,0 0.035,20.6504 0.035,20.6504 z"
         id="path9995"
         inkscape:connector-curvature="0"
         style="clip-rule:evenodd" />
    </clipPath>
    <linearGradient
       x1="0"
       y1="0"
       x2="1"
       y2="0"
       gradientUnits="userSpaceOnUse"
       gradientTransform="matrix(0.14664,81.46365,-81.46365,0.14664,2881.3877,-1470.4893)"
       spreadMethod="pad"
       id="linearGradient10001">
      <stop
         style="stop-opacity:1;stop-color:#7b7979"
         offset="0"
         id="stop10003" />
      <stop
         style="stop-opacity:1;stop-color:#e9e9e9"
         offset="1"
         id="stop10005" />
    </linearGradient>
  </defs>
  <sodipodi:namedview
     id="base"
     pagecolor="#ffffff"
     bordercolor="#666666"
     borderopacity="1.0"
     inkscape:pageopacity="0.0"
     inkscape:pageshadow="2"
     inkscape:zoom="0.35"
     inkscape:cx="216.43898"
     inkscape:cy="157.60876"
     inkscape:document-units="px"
     inkscape:current-layer="layer1"
     showgrid="false"
     fit-margin-top="0"
     fit-margin-left="0"
     fit-margin-right="0"
     fit-margin-bottom="0"
     inkscape:window-width="1280"
     inkscape:window-height="903"
     inkscape:window-x="0"
     inkscape:window-y="1"
     inkscape:window-maximized="1" />
  <metadata
     id="metadata15382">
    <rdf:RDF>
      <cc:Work
         rdf:about="">
        <dc:format>image/svg+xml</dc:format>
        <dc:type
           rdf:resource="http://purl.org/dc/dcmitype/StillImage" />
        <dc:title></dc:title>
      </cc:Work>
    </rdf:RDF>
  </metadata>
  <g
     inkscape:label="Layer 1"
     inkscape:groupmode="layer"
     id="layer1"
     transform="translate(-158.56102,-529.03916)">
    <g
       id="g15999">
      <g
         transform="matrix(1.25,0,0,1.25,-3334.3138,2380.1602)"
         id="g9989">
        <g
           id="g9991"
           clip-path="url(#clipPath9993)">
          <g
             id="g9997">
            <g
               id="g9999">
              <path
                 d="m 2899.8789,-1444.5156 c -12.5586,15.6777 -16.4453,30.8252 -11.8379,40.6035 0,0 -31.0625,0.065 -31.0625,0.065 -1.3681,10e-4 -2.0537,-0.4677 -2.0566,-1.4014 0,0 -0.1074,-59.8359 -0.1074,-59.8359 0,0 -31.7549,0.058 -31.7549,0.058 -1.3623,10e-4 -2.0479,-0.4258 -2.0498,-1.2939 0,0 -0.018,-10.5747 -0.018,-10.5747 0,-0.9312 0.6855,-1.3999 2.0478,-1.4029 0,0 118.7139,0.3145 118.7139,0.3145 0,0 -2.5723,1.4058 -2.5723,1.4058 -6.4277,3.6254 -12.2656,7.4487 -17.5156,11.372 0,0 -21.8222,0.04 -21.8222,0.04 0,0 0.035,20.6504 0.035,20.6504 z"
                 style="fill:url(#linearGradient10001);fill-rule:evenodd;stroke:none"
                 id="path10007"
                 inkscape:connector-curvature="0" />
            </g>
          </g>
        </g>
      </g>
      <g
         transform="matrix(1.25,0,0,1.25,-3334.3138,2380.1602)"
         id="g10009">
        <g
           id="g10011">
          <g
             id="g10017">
            <g
               id="g10019">
              <path
                 d="m 3059.915,-1405.624 c 0,0.9375 -0.6767,1.4043 -2.041,1.4043 0,0 -77.0029,0.1469 -77.0029,0.1469 -8.75,0.014 -16.1826,-2.436 -22.2988,-7.3598 10.4765,-6.0156 22.0752,-13.7232 34.7871,-23.3535 0.1357,5.0898 0.7851,8.913 1.9512,11.4736 1.9492,4.3105 5.5488,6.4536 10.8027,6.4443 0,0 51.7334,-0.097 51.7334,-0.097 1.3652,0 2.0517,0.4711 2.0517,1.4052 0,0 0.017,9.9356 0.017,9.9356 z m -109.2607,-14.6533 c -1.8291,-2.8819 -3.209,-6.0127 -4.1377,-9.3965 26.0635,-13.3926 35.834,-36.9004 29.5781,-48.3125 -0.01,-0.019 81.6387,-0.2061 81.6387,-0.2061 1.3652,0 2.0508,0.459 2.0537,1.3916 0,0 0.019,10.0479 0.019,10.0479 0,0.8652 -0.6807,1.2939 -2.045,1.2939 0,0 -51.7334,0.097 -51.7334,0.097 -5.2558,0.012 -8.8154,1.6035 -10.6796,4.7666 -1.3623,2.2998 -2.0362,6.3613 -2.0264,12.1797 0,0 0.01,5.8227 0.01,5.8227 -11.6035,7.6402 -28.3965,17.7954 -42.6758,22.316 z"
                 style="fill:url(#linearGradient10021);fill-rule:evenodd;stroke:none"
                 id="path10027"
                 inkscape:connector-curvature="0" />
            </g>
          </g>
        </g>
      </g>
      <g
         id="g10029"
         transform="matrix(1.25,0,0,-1.25,-3334.3138,2380.1602)">
        <g
           id="g10031" />
        <g
           id="g10119"
           mask="url(#mask10071)">
          <g
             id="g10121" />
          <g
             id="g10127">
            <g
               clip-path="url(#clipPath10123)"
               id="g10129">
              <g
                 transform="scale(1,-1)"
                 id="g10131">
                <path
                   d="m 2823.0117,-1476.4058 c 0,0 0.018,9.3531 0.018,9.3531 0,0 33.8047,-0.053 33.8047,-0.053 0,0 0.1064,60.0205 0.1133,61.2305 0,0 23.6982,-0.042 28.3115,-0.05 -0.669,-2.1899 -1.126,-4.4839 -1.126,-6.9678 -0.016,-9.5073 4.7793,-20.894 13.7324,-32.2622 -0.01,-1.1982 -0.045,-22.0273 -0.045,-22.0273 0,0 22.1387,-0.044 23.2549,-0.044 4.1631,-3.08 13.4229,-8.7202 13.4229,-8.7202 0,0 -111.4864,-0.459 -111.4864,-0.459 z"
                   style="fill:#ffffff;fill-opacity:1;fill-rule:evenodd;stroke:none"
                   id="path10133"
                   inkscape:connector-curvature="0" />
                <path
                   d="m 2962.5479,-1411.5361 c 5.2412,3.3935 11.2509,5.4531 18.3183,5.4423 0,0 77.0215,-0.146 77.0283,-0.146 0,-1.0141 -0.011,-7.6792 -0.014,-8.6977 0,0 -51.7608,0.088 -51.7608,0.088 -6.0097,0.011 -10.3886,-2.6255 -12.6553,-7.6304 -0.957,-2.105 -1.4785,-5.1084 -1.7968,-8.6074 -10.167,7.5566 -19.916,14.1006 -29.1201,19.5508 z m 18.1923,-64.4952 c 0,0 -0.9316,0.05 -1.7959,0.091 0.5928,1.8423 0.9981,3.7998 1.0088,5.9521 0,2.7041 -0.4521,5.6026 -1.375,8.5938 -3.8359,12.5371 -14.874,24.5219 -29.5293,32.5132 0.6875,2.1196 1.5811,4.1367 2.6592,6.0434 10.6201,-3.6172 23.8877,-10.5908 39.5986,-20.8682 -0.01,-1.4629 -0.01,-4.706 -0.01,-4.706 -0.015,-6.2485 0.7383,-10.5703 2.3086,-13.2129 2.2402,-3.8101 6.4238,-5.7441 12.414,-5.7578 0,0 51.7618,-0.1 51.7618,-0.1 -0.01,-1.167 -0.016,-7.6739 -0.016,-8.6866 0,0 -0.026,0 -0.026,0 0,0 -76.9991,0.1425 -76.9991,0.1425 z"
                   style="fill:#ffffff;fill-opacity:1;fill-rule:evenodd;stroke:none"
                   id="path10135"
                   inkscape:connector-curvature="0" />
                <path
                   d="m 2941.6982,-1473.4268 c -16.5537,8.6036 -33.663,24.812 -43.5654,41.2764 -3.3115,5.5049 -6.0888,12.4043 -6.0752,18.1406 0,3.2525 0.9024,6.1436 3.128,8.1797 14.6425,13.4453 44.0517,0.7232 69.4824,-15.0244 -16.6074,7.5479 -33.3086,11.2041 -41.9326,1.1274 -3.5079,-4.0942 -5.7637,-11.8501 3.3945,-25.5366 10.5234,-15.7344 20.3623,-23.5781 27.708,-22.0957 3.4512,0.6973 5.8809,3.4717 6.6855,7.5869 0.1875,0.9932 0.2881,2.045 0.2881,3.1455 0,3.9722 -1.3574,8.5987 -3.9052,13.2071 5.4589,-5.1328 10.3105,-11.2364 13.0703,-17.625 1.2128,-2.7979 2.291,-6.1543 2.2851,-9.1836 0,-2.3008 -0.6348,-4.419 -2.3008,-5.9737 -4.7636,-4.4291 -16.6455,-3.2651 -28.2627,2.7754 z"
                   style="fill:#ffffff;fill-opacity:1;fill-rule:nonzero;stroke:none"
                   id="path10137"
                   inkscape:connector-curvature="0" />
              </g>
            </g>
          </g>
        </g>
      </g>
      <g
         transform="matrix(1.25,0,0,1.25,-3334.3138,2380.1602)"
         id="g10139">
        <g
           id="g10141">
          <g
             id="g10147">
            <g
               id="g10149">
              <path
                 d="m 3005.875,-1447.9746 c -20.207,16.5015 -86.1631,67.4121 -112.0625,43.6318 -7.8379,-7.2021 -1.8701,-21.4453 2.5889,-28.8476 10.2988,-17.1319 27.8574,-33.4502 44.3642,-42.0269 19.4209,-10.0971 40.8526,-7.6802 31.0733,14.9722 -5.8301,13.4795 -19.9571,25.1211 -29.9658,29.8965 29.9443,-19.6455 16.9101,-60.085 -14.0645,-13.792 -4.1475,6.1972 -9.3691,16.2876 -3.5381,23.1035 16.4131,19.166 67.0713,-16.7949 81.6045,-26.9375 z"
                 style="fill:url(#radialGradient10151);stroke:none"
                 id="path10159"
                 inkscape:connector-curvature="0" />
            </g>
          </g>
        </g>
      </g>
      <g
         transform="matrix(1.25,0,0,1.25,-3334.3138,2380.1602)"
         id="g10161">
        <g
           id="g10163">
          <g
             id="g10169">
            <g
               id="g10171">
              <path
                 d="m 2809.0938,-1368.2246 c 0,0 26.7793,-0.047 26.7793,-0.047 0,0 -0.015,-5.7856 -0.015,-5.7856 0,0 -19.3926,0.038 -19.3926,0.038 0,0 -0.01,-3.8657 -0.01,-3.8657 0,0 17.9609,-0.028 17.9609,-0.028 0,0 -0.01,-4.9853 -0.01,-4.9853 0,0 -17.9609,0.032 -17.9609,0.032 0,0 -0.01,-3.8691 -0.01,-3.8691 0,0 18.9629,-0.032 18.9629,-0.032 0,0 -0.013,-5.582 -0.013,-5.582 0,0 -26.3447,0.047 -26.3447,0.047 0,0 0.044,24.0791 0.044,24.0791 z"
                 style="fill:url(#linearGradient10173);stroke:none"
                 id="path10181"
                 inkscape:connector-curvature="0" />
            </g>
          </g>
        </g>
      </g>
      <g
         transform="matrix(1.25,0,0,1.25,-3334.3138,2380.1602)"
         id="g10183">
        <g
           id="g10185">
          <g
             id="g10191">
            <g
               id="g10193">
              <path
                 d="m 2839.7695,-1376.7241 c 0.012,2.3305 0.4414,4.1235 1.2852,5.3911 0.8437,1.2656 2.0517,2.1416 3.6328,2.624 1.5801,0.4819 3.4814,0.708 5.709,0.6817 0,0 11.8457,-0.022 11.8457,-0.022 1.6221,0 3.0586,-0.1172 4.3242,-0.3545 1.2803,-0.2417 2.3633,-0.6475 3.252,-1.2227 0,0 2.7324,1.5567 2.7324,1.5567 0,0 3.0556,-4.8272 3.0556,-4.8272 0,0 -2.9365,-1.7881 -2.9365,-1.7881 0.072,-0.334 0.1153,-0.6699 0.1407,-1.0107 0.016,-0.3438 0.03,-0.711 0.03,-1.0913 0,0 -0.015,-7.19 -0.015,-7.19 -0.013,-2.3252 -0.4424,-4.1191 -1.2803,-5.3857 -0.8467,-1.2695 -2.0518,-2.1411 -3.6377,-2.6196 -1.5762,-0.4839 -3.4834,-0.7144 -5.7109,-0.6841 0,0 -11.8428,0.021 -11.8428,0.021 -2.2246,-0.019 -4.124,0.2119 -5.708,0.7055 -1.5762,0.481 -2.7871,1.3599 -3.625,2.6333 -0.8428,1.2686 -1.2578,3.0635 -1.2647,5.3916 0,0 0.013,7.19 0.013,7.19 z m 7.5762,-4.9038 c -0.055,-1.5137 0.2246,-2.6905 0.8447,-3.5411 0.6143,-0.8457 1.874,-1.2812 3.7666,-1.2978 0,0 8.6573,-0.017 8.6573,-0.017 1.8906,0.011 3.1552,0.4434 3.7724,1.2881 0.6211,0.8457 0.9033,2.0224 0.8623,3.5361 0,0 0,2.457 0,2.457 0,0 -6.9941,-4.2783 -6.9941,-4.2783 0,0 -3.0518,4.9278 -3.0518,4.9278 0,0 6.96,4.2168 6.96,4.2168 0,0 0,0.065 0,0.065 -0.169,0 -0.3438,0.01 -0.5362,0.023 -0.1962,0 -0.3867,0.012 -0.5898,0.018 0,0 -9.4541,0.014 -9.4541,0.014 -1.7012,0.019 -2.8428,-0.3501 -3.4219,-1.0982 -0.5839,-0.749 -0.8505,-1.9951 -0.8134,-3.7178 0,0 0,-2.5966 0,-2.5966 z"
                 style="fill:url(#linearGradient10195);stroke:none"
                 id="path10203"
                 inkscape:connector-curvature="0" />
            </g>
          </g>
        </g>
      </g>
      <g
         transform="matrix(1.25,0,0,1.25,-3334.3138,2380.1602)"
         id="g10205">
        <g
           id="g10207">
          <g
             id="g10213">
            <g
               id="g10215">
              <path
                 d="m 2877.3125,-1376.9224 c -0.012,2.9878 0.791,5.2085 2.4043,6.6612 1.6133,1.4536 4.1045,2.1782 7.4844,2.1665 0,0 10.5859,-0.021 10.5859,-0.021 3.3789,0 5.8731,-0.7344 7.4805,-2.189 1.6055,-1.4638 2.3916,-3.685 2.3828,-6.6714 0,0 -0.024,-15.5097 -0.024,-15.5097 0,0 -7.3848,0.016 -7.3848,0.016 0,0 0.024,13.9101 0.024,13.9101 0.016,1.5132 -0.2881,2.6055 -0.9179,3.272 -0.6368,0.6724 -1.7041,1.0049 -3.2022,0.9898 0,0 -7.3213,0.015 -7.3213,0.015 -1.4961,0.023 -2.5644,-0.311 -3.1973,-0.9761 -0.6406,-0.6684 -0.9501,-1.7578 -0.9355,-3.2715 0,0 -0.025,-13.9096 -0.025,-13.9096 0,0 -7.3828,0.014 -7.3828,0.014 0,0 0.029,15.5044 0.029,15.5044 z"
                 style="fill:url(#linearGradient10217);stroke:none"
                 id="path10225"
                 inkscape:connector-curvature="0" />
            </g>
          </g>
        </g>
      </g>
      <g
         transform="matrix(1.25,0,0,1.25,-3334.3138,2380.1602)"
         id="g10227">
        <g
           id="g10229">
          <g
             id="g10235">
            <g
               id="g10237">
              <path
                 d="m 2913.0449,-1368.415 c 0,0 7.376,-0.01 7.376,-0.01 0,0 -0.042,-24.0815 -0.042,-24.0815 0,0 -7.374,0.015 -7.374,0.015 0,0 0.04,24.0772 0.04,24.0772 z"
                 style="fill:url(#linearGradient10239);stroke:none"
                 id="path10247"
                 inkscape:connector-curvature="0" />
            </g>
          </g>
        </g>
      </g>
      <g
         transform="matrix(1.25,0,0,1.25,-3334.3138,2380.1602)"
         id="g10249">
        <g
           id="g10251">
          <g
             id="g10257">
            <g
               id="g10259">
              <path
                 d="m 2933.1611,-1386.5469 c 0,0 10.8506,-0.022 10.8506,-0.022 1.1035,0 1.8819,0.2276 2.3457,0.6651 0.4649,0.4453 0.6963,1.0713 0.6866,1.896 0,0 0,0.9311 0,0.9311 0.013,0.7334 -0.1719,1.335 -0.5429,1.8164 -0.3721,0.4854 -0.9874,0.7315 -1.8458,0.752 0,0 -11.4834,0.023 -11.4834,0.023 0,0 -0.01,-6.0625 -0.01,-6.0625 z m -7.3525,18.1113 c 0,0 7.3828,-0.016 7.3828,-0.016 0,0 -0.012,-6.0493 -0.012,-6.0493 0,0 14.6807,-0.028 14.6807,-0.028 1.7207,-0.031 3.0791,-0.4375 4.0761,-1.21 0.9834,-0.7729 1.6875,-1.749 2.0967,-2.9199 0.4063,-1.1738 0.6094,-2.376 0.5937,-3.5996 0,0 -0.01,-2.064 -0.01,-2.064 0.022,-1.5884 -0.2139,-3 -0.7031,-4.2378 -0.4942,-1.2324 -1.3731,-2.208 -2.6416,-2.916 -1.2764,-0.71 -3.0664,-1.0703 -5.377,-1.0801 0,0 -20.1309,0.039 -20.1309,0.039 0,0 0.04,24.081 0.04,24.081 z"
                 style="fill:url(#linearGradient10261);stroke:none"
                 id="path10269"
                 inkscape:connector-curvature="0" />
            </g>
          </g>
        </g>
      </g>
      <g
         transform="matrix(1.25,0,0,1.25,-3334.3138,2380.1602)"
         id="g10271">
        <g
           id="g10273">
          <g
             id="g10279">
            <g
               id="g10281">
              <path
                 d="m 2958.6348,-1368.4981 c 0,0 7.1797,-0.013 7.1797,-0.013 0,0 -0.023,-17.2945 -0.023,-17.2945 0,0 0.063,0 0.063,0 0,0 9.7109,17.2784 9.7109,17.2784 0,0 5.5264,-0.011 5.5264,-0.011 0,0 9.6514,-17.3125 9.6514,-17.3125 0,0 0.064,0 0.064,0 0,0 0.03,17.2983 0.03,17.2983 0,0 7.1875,-0.015 7.1875,-0.015 0,0 -0.047,-24.081 -0.047,-24.081 0,0 -11.3398,0.022 -11.3398,0.022 0,0 -8.3262,15.5117 -8.3262,15.5117 0,0 -8.3769,-15.4834 -8.3769,-15.4834 0,0 -11.3458,0.023 -11.3458,0.023 0,0 0.045,24.0771 0.045,24.0771 z"
                 style="fill:url(#linearGradient10283);stroke:none"
                 id="path10291"
                 inkscape:connector-curvature="0" />
            </g>
          </g>
        </g>
      </g>
      <g
         transform="matrix(1.25,0,0,1.25,-3334.3138,2380.1602)"
         id="g10293">
        <g
           id="g10295">
          <g
             id="g10301">
            <g
               id="g10303">
              <path
                 d="m 3003.0273,-1368.5791 c 0,0 26.7725,-0.05 26.7725,-0.05 0,0 -0.01,-5.7808 -0.01,-5.7808 0,0 -19.3946,0.034 -19.3946,0.034 0,0 -0.01,-3.8603 -0.01,-3.8603 0,0 17.9659,-0.034 17.9659,-0.034 0,0 -0.01,-4.9863 -0.01,-4.9863 0,0 -17.9649,0.031 -17.9649,0.031 0,0 -0.01,-3.8633 -0.01,-3.8633 0,0 18.9648,-0.031 18.9648,-0.031 0,0 0,-5.583 0,-5.583 0,0 -26.3486,0.044 -26.3486,0.044 0,0 0.043,24.0796 0.043,24.0796 z"
                 style="fill:url(#linearGradient10305);stroke:none"
                 id="path10313"
                 inkscape:connector-curvature="0" />
            </g>
          </g>
        </g>
      </g>
      <g
         transform="matrix(1.25,0,0,1.25,-3334.3138,2380.1602)"
         id="g10315">
        <g
           id="g10317">
          <g
             id="g10323">
            <g
               id="g10325">
              <path
                 d="m 3034.252,-1368.6357 c 0,0 7.3818,-0.016 7.3818,-0.016 0,0 -0.03,-17.4941 -0.03,-17.4941 0,0 0.069,0 0.069,0 0,0 13.9052,17.4687 13.9052,17.4687 0,0 11.4405,-0.018 11.4405,-0.018 0,0 -0.048,-24.0801 -0.048,-24.0801 0,0 -7.3789,0.013 -7.3789,0.013 0,0 0.034,17.4995 0.034,17.4995 0,0 -0.068,0 -0.068,0 0,0 -13.9082,-17.4727 -13.9082,-17.4727 0,0 -11.4424,0.019 -11.4424,0.019 0,0 0.045,24.0796 0.045,24.0796 z"
                 style="fill:url(#linearGradient10327);stroke:none"
                 id="path10335"
                 inkscape:connector-curvature="0" />
            </g>
          </g>
        </g>
      </g>
      <g
         transform="matrix(1.25,0,0,1.25,-3334.3138,2380.1602)"
         id="g10337">
        <g
           id="g10339">
          <g
             id="g10345">
            <g
               id="g10347">
              <path
                 d="m 3070.1738,-1386.7988 c 0,0 10.3838,-0.016 10.3838,-0.016 0,0 0.032,18.0966 0.032,18.0966 0,0 7.3829,-0.017 7.3829,-0.017 0,0 -0.032,-18.0947 -0.032,-18.0947 0,0 10.376,-0.022 10.376,-0.022 0,0 -0.011,-5.9819 -0.011,-5.9819 0,0 -28.1465,0.049 -28.1465,0.049 0,0 0.015,5.9854 0.015,5.9854 z"
                 style="fill:url(#linearGradient10349);stroke:none"
                 id="path10357"
                 inkscape:connector-curvature="0" />
            </g>
          </g>
        </g>
      </g>
      <path
         d="m 196.11602,685.75223 c 0,1.12912 0.22212,1.99837 0.6225,2.6185 0.41262,0.61275 0.99612,1.032 1.7615,1.267 0.76287,0.23812 1.68937,0.3455 2.76237,0.33212 0,0 5.76663,-0.0125 5.76663,-0.0125 1.18775,-0.0137 2.09475,-0.17512 2.71612,-0.48275 0.61888,-0.30762 1.04613,-0.7275 1.26825,-1.25125 0.2295,-0.53587 0.33088,-1.12912 0.31738,-1.78825 0,0 0,-1.0975 0,-1.0975 0,0 -3.57913,0 -3.57913,0 0.02,0.6995 -0.13175,1.15425 -0.437,1.352 -0.321,0.20138 -0.8605,0.28438 -1.65887,0.2685 0,0 -3.8135,0 -3.8135,0 -0.81913,0.0125 -1.37938,-0.1655 -1.66138,-0.53225 -0.27337,-0.36137 -0.41262,-0.95825 -0.38812,-1.79812 0,0 -0.0125,-1.25975 -0.0125,-1.25975 -0.02,-0.7275 0.1225,-1.30438 0.41012,-1.7065 0.2955,-0.41513 0.907,-0.62138 1.82738,-0.63113 0,0 3.90012,-0.0125 3.90012,-0.0125 0.53963,-0.0125 0.94975,0.07 1.244,0.22463 0.28438,0.15862 0.43575,0.43825 0.43213,0.85812 0,0 0,0.31613 0,0.31613 0,0 3.584,-0.0125 3.584,-0.0125 0.0263,-1.09625 -0.0913,-1.96238 -0.34425,-2.60625 -0.26375,-0.64938 -0.80688,-1.10713 -1.63088,-1.38238 -0.8325,-0.27537 -2.0825,-0.40712 -3.7525,-0.39612 0,0 -4.21262,0 -4.21262,0 -1.07538,-0.0125 -2.00075,0.10625 -2.76613,0.34662 -0.7605,0.23075 -1.34275,0.661 -1.75775,1.272 -0.40287,0.61163 -0.60912,1.488 -0.6055,2.61413 0,0 0,3.47837 0,3.47837 z"
         style="fill:#4f4c4d;fill-opacity:1;fill-rule:nonzero;stroke:none"
         id="path10359"
         inkscape:connector-curvature="0" />
      <path
         d="m 245.31152,683.29623 c -0.0213,-0.7355 0.10875,-1.30738 0.41012,-1.71388 0.30525,-0.40525 0.91438,-0.61525 1.82863,-0.62925 0,0 4.20162,-0.0125 4.20162,-0.0125 0.91188,0.0125 1.51738,0.213 1.8165,0.62688 0.30638,0.40525 0.44675,0.97412 0.41863,1.709 0,0 0,1.25725 0,1.25725 0.025,0.84112 -0.10375,1.43925 -0.37838,1.79937 -0.27837,0.36738 -0.83737,0.54688 -1.665,0.53713 0,0 -4.57275,0.0125 -4.57275,0.0125 -0.83012,0.015 -1.38062,-0.16663 -1.66262,-0.5335 -0.28075,-0.35638 -0.40413,-0.95825 -0.39063,-1.79925 0,0 0,-1.25613 0,-1.25613 z m -3.6695,2.37675 c 0.0125,1.11937 0.21612,1.99212 0.62625,2.61712 0.41137,0.60675 0.98875,1.0285 1.76025,1.26338 0.76787,0.24112 1.69312,0.34187 2.76125,0.337 0,0 5.73975,-0.015 5.73975,-0.015 1.0815,0.0125 2.00325,-0.1 2.7685,-0.33763 0.76175,-0.24037 1.34887,-0.6665 1.7555,-1.27437 0.40525,-0.62625 0.60537,-1.499 0.603,-2.62088 0,0 0,-3.479 0,-3.479 0,-1.13275 -0.21488,-2.00187 -0.62013,-2.611 -0.40775,-0.61775 -0.99737,-1.0425 -1.759,-1.26475 -0.763,-0.23975 -1.6895,-0.349 -2.76612,-0.33325 0,0 -5.74463,0.0125 -5.74463,0.0125 -1.06937,-0.0125 -1.98975,0.1075 -2.76375,0.3405 -0.7605,0.22888 -1.35012,0.6605 -1.74675,1.27688 -0.41387,0.60975 -0.608,1.48325 -0.61412,2.61475 0,0 0,3.47787 0,3.47787 z"
         style="fill:#4f4c4d;fill-opacity:1;fill-rule:nonzero;stroke:none"
         id="path10361"
         inkscape:connector-curvature="0" />
      <path
         d="m 288.25214,689.68048 c 0,0 3.48638,-0.0125 3.48638,-0.0125 0,0 -0.015,-8.38188 -0.015,-8.38188 0,0 0.0312,0 0.0312,0 0,0 4.70212,8.37275 4.70212,8.37275 0,0 2.67575,0 2.67575,0 0,0 4.6765,-8.38875 4.6765,-8.38875 0,0 0.0375,0 0.0375,0 0,0 0.0125,8.38138 0.0125,8.38138 0,0 3.47413,-0.0125 3.47413,-0.0125 0,0 -0.02,-11.6675 -0.02,-11.6675 0,0 -5.48588,0.0125 -5.48588,0.0125 0,0 -4.03687,7.51462 -4.03687,7.51462 0,0 -4.05875,-7.49875 -4.05875,-7.49875 0,0 -5.49812,0.0125 -5.49812,0.0125 0,0 0.02,11.66625 0.02,11.66625 z"
         style="fill:#4f4c4d;fill-opacity:1;fill-rule:nonzero;stroke:none"
         id="path10363"
         inkscape:connector-curvature="0" />
      <path
         d="m 341.74339,680.8231 c 0,0 5.25275,-0.0163 5.25275,-0.0163 0.53588,0 0.9155,0.105 1.13888,0.3235 0.22825,0.21113 0.33937,0.51513 0.33075,0.9155 0,0 0.0125,0.44675 0.0125,0.44675 0,0.35525 -0.0913,0.65063 -0.27837,0.88625 -0.17826,0.23013 -0.47238,0.35038 -0.88863,0.36563 0,0 -5.5615,0.0125 -5.5615,0.0125 0,0 0,-2.93025 0,-2.93025 z m -3.56325,8.76525 c 0,0 3.58163,0 3.58163,0 0,0 -0.0125,-2.93462 -0.0125,-2.93462 0,0 7.10937,-0.0125 7.10937,-0.0125 0.83625,-0.0163 1.493,-0.21475 1.97513,-0.5895 0.47975,-0.373 0.81912,-0.84113 1.01437,-1.41125 0.19663,-0.57125 0.293,-1.15475 0.29063,-1.74313 0,0 0,-1.00212 0,-1.00212 0,-0.77038 -0.11,-1.44775 -0.35525,-2.04963 -0.23438,-0.59937 -0.65188,-1.07425 -1.27075,-1.40987 -0.61888,-0.34425 -1.482,-0.52488 -2.6075,-0.52613 0,0 -9.75088,0.0163 -9.75088,0.0163 0,0 0.0238,11.66688 0.0238,11.66688 z"
         style="fill:#4f4c4d;fill-opacity:1;fill-rule:nonzero;stroke:none"
         id="path10365"
         inkscape:connector-curvature="0" />
      <path
         d="m 389.31664,680.5301 c 0,0 2.33525,4.386 2.33525,4.386 0,0 -4.58375,0.0125 -4.58375,0.0125 0,0 2.2485,-4.39575 2.2485,-4.39575 z m -8.61325,8.98188 c 0,0 4.00138,-0.0125 4.00138,-0.0125 0,0 1.034,-2.06913 1.034,-2.06913 0,0 7.24975,-0.0125 7.24975,-0.0125 0,0 1.12187,2.05813 1.12187,2.05813 0,0 3.97338,-0.0125 3.97338,-0.0125 0,0 -6.43188,-11.64913 -6.43188,-11.64913 0,0 -4.66562,0.0125 -4.66562,0.0125 0,0 -6.28288,11.67288 -6.28288,11.67288 z"
         style="fill:#4f4c4d;fill-opacity:1;fill-rule:nonzero;stroke:none"
         id="path10367"
         inkscape:connector-curvature="0" />
      <path
         d="m 427.80789,689.4241 c 0,0 3.57175,0 3.57175,0 0,0 -0.0125,-8.47712 -0.0125,-8.47712 0,0 0.0225,0 0.0225,0 0,0 6.74075,8.46675 6.74075,8.46675 0,0 5.54325,-0.0125 5.54325,-0.0125 0,0 -0.0263,-11.67113 -0.0263,-11.67113 0,0 -3.57412,0.0125 -3.57412,0.0125 0,0 0.0225,8.479 0.0225,8.479 0,0 -0.0362,0 -0.0362,0 0,0 -6.73713,-8.4655 -6.73713,-8.4655 0,0 -5.54437,0 -5.54437,0 0,0 0.03,11.66863 0.03,11.66863 z"
         style="fill:#4f4c4d;fill-opacity:1;fill-rule:nonzero;stroke:none"
         id="path10369"
         inkscape:connector-curvature="0" />
      <path
         d="m 479.85989,689.32898 c 0,0 3.57788,-0.0125 3.57788,-0.0125 0,0 -0.0125,-4.06063 -0.0125,-4.06063 0,0 6.45025,-7.61362 6.45025,-7.61362 0,0 -4.32138,0.0125 -4.32138,0.0125 0,0 -3.91962,4.77662 -3.91962,4.77662 0,0 -3.938,-4.765 -3.938,-4.765 0,0 -4.31513,0 -4.31513,0 0,0 6.46725,7.59638 6.46725,7.59638 0,0 0.0125,4.06012 0.0125,4.06012 z"
         style="fill:#4f4c4d;fill-opacity:1;fill-rule:nonzero;stroke:none"
         id="path10371"
         inkscape:connector-curvature="0" />
      <path
         d="m 160.58002,664.71898 c 0,0 0,-3.54188 0,-3.54188 0,0 -1.98113,0 -1.98113,0 0,0 0.0125,9.411 0.0125,9.411 0,0 1.9775,0 1.9775,0 0,0 0,-3.54737 0,-3.54737 0,0 10.105,-0.0137 10.105,-0.0137 0,0 0,-2.31875 0,-2.31875 0,0 -10.105,0.0138 -10.105,0.0138 z"
         style="fill:#4f4c4d;fill-opacity:1;fill-rule:nonzero;stroke:none"
         id="path10373"
         inkscape:connector-curvature="0" />
      <path
         d="m 158.56952,649.63898 c 0,0 0.0125,2.31575 0.0125,2.31575 0,0 4.95362,0 4.95362,0 0,0 0,5.62387 0,5.62387 0,0 -4.94512,0.0125 -4.94512,0.0125 0,0 0.0125,2.31575 0.0125,2.31575 0,0 12.08737,-0.02 12.08737,-0.02 0,0 -0.0125,-2.315 -0.0125,-2.315 0,0 -5.15737,0 -5.15737,0 0,0 -0.0125,-5.62262 -0.0125,-5.62262 0,0 5.15625,0 5.15625,0 0,0 0,-2.323 0,-2.323 0,0 -12.08863,0.0238 -12.08863,0.0238 z"
         style="fill:#4f4c4d;fill-opacity:1;fill-rule:nonzero;stroke:none"
         id="path10375"
         inkscape:connector-curvature="0" />
      <path
         d="m 160.53739,645.15348 c 0,0 0,-5.96488 0,-5.96488 0,0 -1.97637,0 -1.97637,0 0,0 0.015,8.27763 0.015,8.27763 0,0 12.09112,-0.0162 12.09112,-0.0162 0,0 -0.0212,-8.33313 -0.0212,-8.33313 0,0 -1.98125,0 -1.98125,0 0,0 0,6.01188 0,6.01188 0,0 -3.20562,0 -3.20562,0 0,0 0,-5.65425 0,-5.65425 0,0 -1.90425,0 -1.90425,0 0,0 0.015,5.653 0.015,5.653 0,0 -3.02488,0 -3.02488,0 z"
         style="fill:#4f4c4d;fill-opacity:1;fill-rule:nonzero;stroke:none"
         id="path10377"
         inkscape:connector-curvature="0" />
    </g>
  </g>
</svg>
